<svg xmlns="http://www.w3.org/2000/svg" width="15" height="14.25" viewBox="0 0 15 14.25">
  <path id="Path_65" data-name="Path 65" d="M1117.25,356.25h-10.5a2.252,2.252,0,0,0-2.25,2.25v11.25a.74.74,0,0,0,.38.653.751.751,0,0,0,.37.1.735.735,0,0,0,.38-.105l3.37-2.04a.739.739,0,0,1,.41-.105h7.84a2.252,2.252,0,0,0,2.25-2.25v-7.5a2.252,2.252,0,0,0-2.25-2.25ZM1109,363a.776.776,0,0,1-.42-.126.719.719,0,0,1-.27-.337.8.8,0,0,1-.05-.433.728.728,0,0,1,.21-.384.741.741,0,0,1,.38-.206.769.769,0,0,1,.44.043.761.761,0,0,1,.33.276.7.7,0,0,1,.13.417.751.751,0,0,1-.75.75Zm3,0a.776.776,0,0,1-.42-.126.719.719,0,0,1-.27-.337.8.8,0,0,1-.05-.433.728.728,0,0,1,.21-.384.741.741,0,0,1,.38-.206.769.769,0,0,1,.44.043.761.761,0,0,1,.33.276.7.7,0,0,1,.13.417.751.751,0,0,1-.75.75Zm3,0a.776.776,0,0,1-.42-.126.719.719,0,0,1-.27-.337.8.8,0,0,1-.05-.433.728.728,0,0,1,.21-.384.741.741,0,0,1,.38-.206.769.769,0,0,1,.44.043.761.761,0,0,1,.33.276.7.7,0,0,1,.13.417.751.751,0,0,1-.75.75Z" transform="translate(-1104.5 -356.25)" fill="#ffb167"/>
</svg>
