<svg xmlns="http://www.w3.org/2000/svg" width="15.03" height="15" viewBox="0 0 15.03 15">
  <path id="Path_64" data-name="Path 64" d="M1065.05,370.5a11.569,11.569,0,0,1-11.55-11.55,3.448,3.448,0,0,1,3.45-3.45,3.073,3.073,0,0,1,.58.052,3.133,3.133,0,0,1,.54.135.81.81,0,0,1,.32.217.74.74,0,0,1,.16.346l1.03,4.5a.665.665,0,0,1-.01.37.683.683,0,0,1-.18.32c-.1.105-.11.112-1.03.592a7.421,7.421,0,0,0,3.65,3.668c.49-.93.5-.938.6-1.035a.752.752,0,0,1,.69-.2l4.5,1.027a.719.719,0,0,1,.54.488,2.614,2.614,0,0,1,.14.547,2.737,2.737,0,0,1,.05.57,3.45,3.45,0,0,1-3.48,3.4Z" transform="translate(-1053.5 -355.5)" fill="#4b7ffb"/>
</svg>
