<svg xmlns="http://www.w3.org/2000/svg" width="41.24" height="41.279" viewBox="0 0 41.24 41.279">
  <g id="Group_17" data-name="Group 17" transform="translate(-3605.001 -1518)">
    <path id="Path_58" data-name="Path 58" d="M801.241,70.62a20.62,20.62,0,1,0-20.62,20.62A20.621,20.621,0,0,0,801.241,70.62Z" transform="translate(2845 1468)" fill="#5a4980"/>
    <g id="Group_16" data-name="Group 16" transform="translate(2845 1468)">
      <path id="Path_25" data-name="Path 25" d="M772.681,66.945c0,3.454-1.894,3.544-1.761,5.832.151,2.533,2.13,2.538,2.13,4.279s-1.819,3.692-.209,5.567h7.785V61.5Z" fill="#461811"/>
      <path id="Path_26" data-name="Path 26" d="M788.566,66.945c0,3.454,1.9,3.544,1.761,5.832-.15,2.533-2.13,2.538-2.13,4.279s1.82,3.692.209,5.567h-7.785V61.5Z" fill="#461811"/>
      <path id="Path_27" data-name="Path 27" d="M789.687,63.374a9.025,9.025,0,1,0-9.025,9.024A9.025,9.025,0,0,0,789.687,63.374Z" fill="#461811"/>
      <path id="Path_28" data-name="Path 28" d="M783.683,82.7l-3.059,8.576L777.645,82.7V76.078h6.038Z" fill="#eac8ad"/>
      <path id="Path_29" data-name="Path 29" d="M780.662,57.726c-2.932,0-7.568,1.667-7.568,9.478a10.949,10.949,0,0,0,2.4,7.452c.589.752,3.614,3.183,5.169,3.183Z" fill="#f2d7bc"/>
      <path id="Path_30" data-name="Path 30" d="M771.636,69.067c-.129-1.247.466-2.356,1.327-2.474s1.666.8,1.8,2.045-.465,2.355-1.329,2.474S771.764,70.314,771.636,69.067Z" fill="#f2d7bc"/>
      <path id="Path_31" data-name="Path 31" d="M780.638,57.726c2.933,0,7.569,1.667,7.569,9.478a10.948,10.948,0,0,1-2.4,7.452c-.59.752-3.615,3.183-5.17,3.183Z" fill="#eac0a7"/>
      <path id="Path_32" data-name="Path 32" d="M789.689,69.067c.129-1.247-.466-2.356-1.327-2.474s-1.666.8-1.795,2.045.466,2.355,1.327,2.474S789.561,70.314,789.689,69.067Z" fill="#eac0a7"/>
      <path id="Path_33" data-name="Path 33" d="M780.624,91.276V83.028s-2.254-.558-2.749-2.382a6.533,6.533,0,0,1-.233-1.582s-4.927,1.664-6.026,3.382c-.914,2.724-1.166,8.83-1.166,8.83Z" fill="#eac8ad"/>
      <path id="Path_34" data-name="Path 34" d="M780.624,91.276V83.028s2.253-.558,2.748-2.382a6.533,6.533,0,0,0,.233-1.582s4.927,1.664,6.026,3.382c.914,2.724,1.167,8.83,1.167,8.83Z" fill="#eac8ad"/>
      <path id="Path_35" data-name="Path 35" d="M780.662,75.088a1.872,1.872,0,0,0,2.07-1.567h-4.139A1.871,1.871,0,0,0,780.662,75.088Z" fill="#fff"/>
      <path id="Path_36" data-name="Path 36" d="M780.624,88.052a78.7,78.7,0,0,1-2.982-8.985c-.822.318-1.494.517-2.008.784a31.879,31.879,0,0,0-2.543,11.428h7.53V88.052Z" fill="#eb1a3a"/>
      <path id="Path_37" data-name="Path 37" d="M780.658,88.052a78.779,78.779,0,0,0,2.981-8.985c.822.318,1.494.517,2.009.784a31.866,31.866,0,0,1,2.542,11.428h-7.532Z" fill="#c5132d"/>
      <path id="Path_38" data-name="Path 38" d="M780.236,55.48a6.891,6.891,0,0,0-6.987,6.855c-1.943,2.7.175,5.116,1.674,5.965V66.971c0-1.747,1.662-3.365,4.155-3.1,2.235.24,3.644-1.021,4.833-3.171C785.378,57.831,783.547,55.48,780.236,55.48Z" fill="#461811"/>
      <path id="Path_39" data-name="Path 39" d="M783.683,59.825s1.251,5.082,4.679,6.768c.612-4.568.971-3.607,0-6.011s-4.679-4.192-4.679-4.192Z" fill="#461811"/>
    </g>
  </g>
</svg>
