<svg xmlns="http://www.w3.org/2000/svg" width="15.01" height="10.5" viewBox="0 0 15.01 10.5">
  <path id="Path_66" data-name="Path 66" d="M1168.75,358.363a1.278,1.278,0,0,0-.73-.1,1.32,1.32,0,0,0-.66.321l-1.61,1.5V359a2.252,2.252,0,0,0-2.25-2.25h-6.75a2.252,2.252,0,0,0-2.25,2.25v6a2.252,2.252,0,0,0,2.25,2.25h6.75a2.252,2.252,0,0,0,2.25-2.25v-1.087l1.62,1.5a1.313,1.313,0,0,0,.87.337,1.262,1.262,0,0,0,.52-.112,1.179,1.179,0,0,0,.54-.441,1.154,1.154,0,0,0,.21-.669v-5.055a1.2,1.2,0,0,0-.76-1.11Z" transform="translate(-1154.5 -356.75)" fill="#f57e71"/>
</svg>
